<svg version="1.1" xmlns="http://www.w3.org/2000/svg" viewBox="0 0 2430.811492919922 1532.671372012966" width="4861.622985839844" height="3065.342744025932">
  <!-- svg-source:excalidraw -->
  
  <defs>
    <style>
      @font-face {
        font-family: "Virgil";
        src: url("https://excalidraw.com/Virgil.woff2");
      }
      @font-face {
        font-family: "Cascadia";
        src: url("https://excalidraw.com/Cascadia.woff2");
      }
    </style>
  </defs>
  <g stroke-linecap="round" transform="translate(775.476204067717 492.05409681470337) rotate(0 110.54311752738295 41.11050824159042)"><path d="M85.88 1.57 C99.53 -0.12, 117.36 -0.26, 132.29 0.97 C147.22 2.21, 163 5.66, 175.46 8.98 C187.93 12.29, 199.54 15.99, 207.07 20.88 C214.61 25.76, 219.51 32.56, 220.66 38.31 C221.8 44.07, 219.28 49.96, 213.94 55.4 C208.6 60.84, 199.37 67.06, 188.63 70.96 C177.89 74.87, 164.13 76.99, 149.48 78.83 C134.84 80.66, 116.31 82.35, 100.77 81.98 C85.23 81.61, 69.56 79.3, 56.25 76.61 C42.93 73.92, 29.82 70.4, 20.89 65.84 C11.96 61.28, 5.71 54.86, 2.69 49.25 C-0.32 43.64, -0.78 37.91, 2.79 32.18 C6.37 26.45, 14.47 19.64, 24.15 14.88 C33.84 10.12, 49.23 6.06, 60.9 3.61 C72.57 1.16, 87.13 0.62, 94.18 0.2 C101.23 -0.22, 102.93 0.23, 103.2 1.08 M153.24 2.19 C167.71 3.67, 183.09 8.3, 193.36 12.6 C203.62 16.89, 210.33 22.51, 214.82 27.97 C219.32 33.43, 222.24 39.31, 220.34 45.36 C218.44 51.4, 211.46 59.46, 203.42 64.26 C195.37 69.06, 184.84 71.36, 172.05 74.16 C159.26 76.96, 142.09 80.11, 126.69 81.05 C111.3 82, 94.43 81.43, 79.71 79.83 C64.99 78.24, 50.18 74.96, 38.38 71.49 C26.58 68.02, 15.21 64.24, 8.9 59.01 C2.58 53.78, 0.47 45.99, 0.47 40.1 C0.48 34.2, 2.36 28.64, 8.92 23.64 C15.49 18.64, 27.76 13.73, 39.88 10.12 C51.99 6.51, 67.17 3.82, 81.64 2 C96.11 0.18, 114.54 -0.99, 126.69 -0.78 C138.85 -0.57, 150.07 2.5, 154.56 3.24 C159.05 3.98, 154.36 2.92, 153.62 3.65" stroke="#343a40" stroke-width="1" fill="none"></path></g><g transform="translate(823.5889779671699 520.933892165669) rotate(0 58.5 12)"><text x="0" y="19" font-family="Cascadia, Segoe UI Emoji" font-size="20px" fill="#343a40" text-anchor="start" style="white-space: pre;" direction="ltr">model.json</text></g><g stroke-linecap="round" transform="translate(968.2832938863836 989.1559407662035) rotate(0 110.54311752738295 41.11050824159042)"><path d="M68.55 3.37 C81.61 0.98, 100.27 0.49, 115.89 0.81 C131.52 1.14, 148.61 2.98, 162.29 5.34 C175.96 7.69, 188.76 10.61, 197.95 14.92 C207.15 19.23, 213.9 25.52, 217.45 31.18 C220.99 36.84, 222.18 43.3, 219.21 48.87 C216.23 54.43, 208.92 59.97, 199.59 64.58 C190.26 69.18, 176.54 73.41, 163.22 76.49 C149.91 79.57, 134.79 82.38, 119.72 83.06 C104.65 83.74, 87.41 82.84, 72.82 80.58 C58.24 78.32, 43.3 73.67, 32.21 69.49 C21.12 65.3, 11.63 60.83, 6.3 55.44 C0.97 50.06, -0.94 42.9, 0.24 37.18 C1.43 31.46, 5.7 26.16, 13.41 21.14 C21.12 16.12, 35.99 10.29, 46.53 7.05 C57.06 3.81, 70.01 2.59, 76.6 1.67 C83.2 0.76, 85.42 0.75, 86.1 1.59 M93.19 1.29 C107.1 -0.25, 126.34 -0.04, 141.19 1.65 C156.04 3.34, 170.64 7.8, 182.29 11.41 C193.95 15.02, 204.6 18.5, 211.13 23.31 C217.66 28.12, 221.59 34.42, 221.48 40.28 C221.37 46.13, 217.27 53.04, 210.45 58.43 C203.63 63.83, 192.36 68.95, 180.54 72.66 C168.71 76.38, 154.23 79.05, 139.5 80.73 C124.77 82.41, 107.38 83.54, 92.16 82.74 C76.93 81.94, 60.82 79.27, 48.17 75.95 C35.51 72.63, 24.28 67.92, 16.22 62.8 C8.15 57.68, 1.36 50.82, -0.23 45.22 C-1.81 39.62, 1.5 34.61, 6.71 29.2 C11.92 23.8, 20.53 17.24, 31.04 12.78 C41.56 8.33, 59.23 4.33, 69.82 2.46 C80.41 0.6, 90.52 1.86, 94.6 1.59 C98.68 1.32, 93.87 0.16, 94.28 0.84" stroke="#8899aa" stroke-width="1" fill="none"></path></g><g transform="translate(1030.226298498727 1017.1731491420715) rotate(0 47 12)"><text x="0" y="19" font-family="Cascadia, Segoe UI Emoji" font-size="20px" fill="#8899aa" text-anchor="start" style="white-space: pre;" direction="ltr">Database</text></g><g stroke-linecap="round" transform="translate(945.3663894411103 736.6387787197078) rotate(0 133.8843994140625 41.89689636230469)"><path d="M-0.87 0.47 C74.37 3.29, 145.94 3.28, 266.92 1.49 M0.4 0.63 C75.46 -2.09, 150.29 -1.69, 268.14 0.16 M266.67 -0.02 C269.39 26.23, 266.93 49.17, 267.95 84.93 M268.19 -0.89 C268.81 21.02, 267.71 40.82, 267.65 83.09 M266.71 85.14 C179.79 84.66, 90.89 86.41, -0.79 82.88 M268.2 83.73 C193.99 82.89, 119.12 83.15, 0.23 84.48 M-0.62 83.21 C1.05 62.15, 0.54 41.88, -0.9 0.97 M0.31 82.84 C0.16 56.47, -1.29 29.83, 0.26 0.46" stroke="#c92a2a" stroke-width="1" fill="none"></path></g><g transform="translate(973.8996250151805 767.050551242453) rotate(0 105.5 12)"><text x="0" y="19" font-family="Cascadia, Segoe UI Emoji" font-size="20px" fill="#c92a2a" text-anchor="start" style="white-space: pre;" direction="ltr">introspectDatabase</text></g><g stroke-linecap="round"><g transform="translate(1079.3969787822348 968.8594776578261) rotate(0 0.4359761829950912 -69.56257295085595)"><path d="M-0.93 0.39 C-0.73 -22.84, 1.53 -116.4, 1.8 -139.52 M0.78 -0.45 C0.78 -23.5, 0.53 -114.91, 0.91 -138.21" stroke="#8899aa" stroke-width="1" fill="none"></path></g><g transform="translate(1079.3969787822348 968.8594776578261) rotate(0 0.4359761829950912 -69.56257295085595)"><path d="M11.67 -109.78 C6.79 -121.59, 5.27 -129.98, 2.42 -137.14 M11.99 -109.68 C8.8 -118.19, 5.66 -127.84, 0.82 -137.84" stroke="#8899aa" stroke-width="1" fill="none"></path></g><g transform="translate(1079.3969787822348 968.8594776578261) rotate(0 0.4359761829950912 -69.56257295085595)"><path d="M-8.85 -109.89 C-6.55 -121.51, -0.89 -129.86, 2.42 -137.14 M-8.53 -109.79 C-5.42 -118.39, -2.26 -128, 0.82 -137.84" stroke="#8899aa" stroke-width="1" fill="none"></path></g></g><g stroke-linecap="round"><g transform="translate(1052.583635698592 731.6478685297365) rotate(0 -66.10686313494506 -77.08362701268916)"><path d="M0.58 -0.27 C-21.44 -25.94, -109.76 -128.22, -131.77 -153.9 M-0.58 -1.45 C-22.79 -26.91, -110.86 -126.97, -132.79 -152.27" stroke="#c92a2a" stroke-width="1" fill="none"></path></g><g transform="translate(1052.583635698592 731.6478685297365) rotate(0 -66.10686313494506 -77.08362701268916)"><path d="M-106.95 -138.03 C-114.8 -142.17, -124.17 -147.68, -132.46 -153.31 M-105.68 -137.81 C-115.6 -141.23, -123.88 -145.9, -132.85 -152.44" stroke="#c92a2a" stroke-width="1" fill="none"></path></g><g transform="translate(1052.583635698592 731.6478685297365) rotate(0 -66.10686313494506 -77.08362701268916)"><path d="M-122.4 -124.52 C-125.21 -133.15, -129.54 -143.07, -132.46 -153.31 M-121.12 -124.3 C-126.29 -132.11, -129.71 -141.03, -132.85 -152.44" stroke="#c92a2a" stroke-width="1" fill="none"></path></g></g><g stroke-linecap="round" transform="translate(1501.4864913698211 733.933761629864) rotate(0 133.8843994140625 41.89689636230469)"><path d="M-1.07 -0.39 C88.81 -2.52, 176.24 -2.39, 267.76 1.37 M0.47 -0.11 C53.91 1.92, 107.81 1.3, 268.06 -0.25 M267.85 -1.64 C265.86 25.53, 266.72 55.78, 268.6 83.13 M268.49 0.01 C267.2 33.91, 268.45 67.32, 268.19 84.61 M267.61 82.3 C208.75 82.4, 149.37 82.56, 1.07 83.23 M267.39 83.16 C163.71 85.03, 58.63 84.38, 0.62 83.91 M-1.99 84.57 C1.06 57.21, -1.06 27.86, 0.66 1.58 M-0.7 82.92 C-1.47 58.13, -0.12 31.98, -0.27 -0.74" stroke="#364fc7" stroke-width="1" fill="none"></path></g><g transform="translate(1546.9798099517038 762.9276111789763) rotate(0 94 12)"><text x="0" y="19" font-family="Cascadia, Segoe UI Emoji" font-size="20px" fill="#364fc7" text-anchor="start" style="white-space: pre;" direction="ltr">generateSqlQuery</text></g><g stroke-linecap="round" transform="translate(1532.0345603658757 506.6365773628829) rotate(0 110.54311752738295 41.11050824159042)"><path d="M99.69 -0.52 C114.03 -1.75, 130.63 -0.32, 145.22 1.54 C159.81 3.41, 176 6.61, 187.23 10.66 C198.46 14.71, 207.05 20.34, 212.59 25.83 C218.13 31.31, 221 37.75, 220.46 43.59 C219.92 49.43, 216.35 55.99, 209.36 60.88 C202.37 65.76, 190.8 69.7, 178.54 72.92 C166.28 76.13, 150.96 78.64, 135.79 80.17 C120.61 81.7, 102.55 83.16, 87.5 82.09 C72.45 81.02, 57.66 77.24, 45.48 73.77 C33.3 70.3, 21.89 66.27, 14.42 61.25 C6.96 56.23, 2.04 49.52, 0.7 43.65 C-0.63 37.79, 1.02 31.45, 6.43 26.06 C11.84 20.66, 22.02 15.19, 33.17 11.3 C44.31 7.41, 59.9 4.62, 73.31 2.72 C86.72 0.82, 104.33 -0.05, 113.62 -0.1 C122.92 -0.16, 129.07 1.8, 129.08 2.38 M131.02 -0.4 C145.48 0.08, 161.89 5.18, 174.32 8.63 C186.75 12.09, 197.91 15.67, 205.6 20.34 C213.28 25.02, 218.91 31.03, 220.43 36.67 C221.96 42.32, 219.77 48.49, 214.74 54.2 C209.72 59.9, 201.25 66.68, 190.28 70.9 C179.32 75.12, 163.5 77.45, 148.95 79.5 C134.39 81.56, 117.94 83.67, 102.96 83.22 C87.98 82.76, 72.56 79.84, 59.05 76.76 C45.54 73.68, 31.39 69, 21.91 64.73 C12.42 60.45, 5.44 56.37, 2.16 51.12 C-1.13 45.87, -1.12 39.28, 2.2 33.22 C5.51 27.16, 12.68 19.36, 22.04 14.76 C31.4 10.16, 44.42 8.25, 58.36 5.62 C72.29 2.98, 93.58 -0.44, 105.64 -1.05 C117.69 -1.66, 126.29 1.62, 130.68 1.96 C135.07 2.3, 132.06 0.27, 131.98 0.98" stroke="#364fc7" stroke-width="1" fill="none"></path></g><g transform="translate(1571.596415686227 535.2470856044736) rotate(0 76 12)"><text x="0" y="19" font-family="Cascadia, Segoe UI Emoji" font-size="20px" fill="#364fc7" text-anchor="start" style="white-space: pre;" direction="ltr">query.graphql</text></g><g stroke-linecap="round"><g transform="translate(1639.915085230266 591.5132914217593) rotate(0 -0.5035542947588283 66.08337067038187)"><path d="M0.1 0.61 C0.14 22.48, 0.28 109.06, 0.3 130.68 M-1.31 -0.11 C-1.34 22.01, -0.29 110.33, -0.07 132.28" stroke="#364fc7" stroke-width="1" fill="none"></path></g><g transform="translate(1639.915085230266 591.5132914217593) rotate(0 -0.5035542947588283 66.08337067038187)"><path d="M-9.61 106.04 C-7.33 114.54, -4.65 121.04, 1.75 130.97 M-9.71 103.28 C-6.64 114.41, -3.38 124.19, 0.4 131.46" stroke="#364fc7" stroke-width="1" fill="none"></path></g><g transform="translate(1639.915085230266 591.5132914217593) rotate(0 -0.5035542947588283 66.08337067038187)"><path d="M10.91 105.81 C6.9 114.41, 3.3 120.97, 1.75 130.97 M10.81 103.06 C6.3 114.25, 1.97 124.11, 0.4 131.46" stroke="#364fc7" stroke-width="1" fill="none"></path></g></g><g stroke-linecap="round" transform="translate(1527.915969057282 967.531551117766) rotate(0 110.54311752738295 41.11050824159042)"><path d="M156.11 2.86 C170.37 4.49, 184.04 9.63, 194.05 14.13 C204.06 18.62, 211.74 24.22, 216.17 29.82 C220.59 35.43, 222.87 42.3, 220.6 47.76 C218.33 53.23, 211.06 57.94, 202.56 62.64 C194.06 67.34, 182.49 72.91, 169.61 75.95 C156.73 79, 140.36 80.2, 125.27 80.91 C110.17 81.62, 93.74 81.6, 79.04 80.19 C64.34 78.79, 48.62 76.22, 37.06 72.49 C25.5 68.76, 15.81 63.3, 9.68 57.8 C3.54 52.3, -0.02 45.26, 0.26 39.48 C0.53 33.7, 4.63 27.98, 11.35 23.12 C18.08 18.25, 28.8 13.92, 40.61 10.29 C52.43 6.66, 67.32 2.84, 82.27 1.33 C97.22 -0.19, 117.38 0.82, 130.29 1.21 C143.2 1.61, 153.98 2.89, 159.71 3.71 C165.44 4.53, 165.42 5.46, 164.65 6.15 M92.16 1.52 C106.19 -0.14, 123.06 -0.26, 137.57 0.96 C152.09 2.17, 167.39 4.9, 179.26 8.8 C191.13 12.71, 202.04 19.04, 208.8 24.4 C215.57 29.77, 219.22 35.57, 219.85 40.99 C220.48 46.41, 218.54 52.01, 212.59 56.91 C206.64 61.82, 195.61 66.75, 184.15 70.43 C172.69 74.11, 158.49 76.91, 143.81 79.02 C129.14 81.13, 111.42 83.6, 96.12 83.11 C80.81 82.62, 65.14 79.5, 51.98 76.08 C38.81 72.66, 25.76 67.25, 17.12 62.58 C8.48 57.9, 2.27 53.54, 0.13 48.02 C-2.01 42.49, -0.28 35, 4.29 29.44 C8.87 23.87, 17.5 18.9, 27.58 14.65 C37.67 10.39, 54.17 6.22, 64.78 3.91 C75.38 1.6, 86.94 1.39, 91.2 0.79 C95.46 0.19, 90.23 -0.45, 90.34 0.32" stroke="#364fc7" stroke-width="1" fill="none"></path></g><g transform="translate(1590.7590743776332 996.1420593593566) rotate(0 52.5 12)"><text x="0" y="19" font-family="Cascadia, Segoe UI Emoji" font-size="20px" fill="#364fc7" text-anchor="start" style="white-space: pre;" direction="ltr">query.sql</text></g><g stroke-linecap="round"><g transform="translate(1640.862095454263 822.7058879138449) rotate(0 -1.1683244772923445 72.27675216651596)"><path d="M-0.22 0.09 C-0.52 24.02, -1.11 119.73, -1.67 143.89 M-1.8 -0.9 C-2.17 23.21, -2.15 121.43, -2.06 145.46" stroke="#364fc7" stroke-width="1" fill="none"></path></g><g transform="translate(1640.862095454263 822.7058879138449) rotate(0 -1.1683244772923445 72.27675216651596)"><path d="M-12.2 119.08 C-8.98 124.6, -3.91 133.59, -2.91 146.63 M-13.11 117.37 C-8.58 124.35, -6.84 132.47, -1.58 145.51" stroke="#364fc7" stroke-width="1" fill="none"></path></g><g transform="translate(1640.862095454263 822.7058879138449) rotate(0 -1.1683244772923445 72.27675216651596)"><path d="M8.32 119.05 C5.16 124.54, 3.84 133.54, -2.91 146.63 M7.41 117.34 C6.65 124.32, 3.1 132.45, -1.58 145.51" stroke="#364fc7" stroke-width="1" fill="none"></path></g></g><g stroke-linecap="round" transform="translate(777.9367769593015 11.185874938964844) rotate(0 110.54311752738295 41.11050824159043)"><path d="M158.85 4.23 C172.75 5.81, 187 9.89, 196.93 14.46 C206.86 19.02, 214.72 26.12, 218.42 31.64 C222.13 37.17, 221.9 41.96, 219.15 47.58 C216.41 53.2, 210.54 60.44, 201.94 65.36 C193.34 70.28, 181.04 74.39, 167.54 77.1 C154.03 79.8, 136.34 81.13, 120.89 81.59 C105.45 82.04, 89.42 81.71, 74.89 79.85 C60.35 77.98, 44.82 74.32, 33.67 70.42 C22.52 66.52, 13.48 61.76, 7.98 56.43 C2.47 51.09, -0.13 43.99, 0.64 38.4 C1.4 32.81, 5.45 27.78, 12.57 22.89 C19.7 17.99, 31.04 12.66, 43.41 9.03 C55.78 5.4, 71.65 2.41, 86.78 1.1 C101.92 -0.21, 120.67 0.41, 134.23 1.18 C147.78 1.94, 161.62 4.36, 168.1 5.68 C174.58 7.01, 174.29 8.67, 173.09 9.13 M86.52 -0.12 C100.33 -1.69, 118.22 0.31, 132.85 1.4 C147.47 2.49, 161.99 3.33, 174.26 6.42 C186.54 9.51, 198.87 14.64, 206.48 19.94 C214.1 25.24, 218.6 32.13, 219.94 38.22 C221.29 44.31, 219.57 51.05, 214.55 56.51 C209.53 61.96, 200.69 66.95, 189.83 70.94 C178.97 74.93, 164.06 78.52, 149.38 80.45 C134.69 82.37, 117.01 82.95, 101.71 82.52 C86.42 82.1, 71.03 80.67, 57.62 77.9 C44.21 75.14, 30.48 70.8, 21.27 65.93 C12.06 61.07, 5.63 54.37, 2.37 48.72 C-0.9 43.07, -1.94 37.3, 1.68 32.03 C5.3 26.77, 14.48 21.73, 24.07 17.12 C33.65 12.51, 49.11 7.03, 59.19 4.39 C69.26 1.74, 80.1 1.7, 84.5 1.25 C88.9 0.8, 85.08 1.11, 85.59 1.67" stroke="#087f5b" stroke-width="1" fill="none"></path></g><g transform="translate(812.0532282269183 40.89051465028206) rotate(0 76 12)"><text x="0" y="19" font-family="Cascadia, Segoe UI Emoji" font-size="20px" fill="#087f5b" text-anchor="start" style="white-space: pre;" direction="ltr">model.graphql</text></g><g stroke-linecap="round" transform="translate(578.0929926312157 732.0996363543834) rotate(0 133.8843994140625 41.89689636230469)"><path d="M0.32 1.22 C61.23 0.39, 120.66 0.4, 267.39 0.44 M0.29 0.08 C95.24 -0.59, 191.25 0.43, 268.45 -0.32 M267.73 -0.31 C267.31 23.35, 266.31 46.62, 268.45 84.81 M267.84 0.3 C267.73 22.21, 268.13 42.76, 268.09 84.76 M269.14 84.33 C183.25 84.02, 100.82 85.67, -0.96 82.83 M267.88 83.97 C166.22 85.83, 63.92 85.84, -0.34 84.26 M-1.16 84.68 C-0.1 58.93, 1.56 29.75, 0.51 1.47 M0.6 84.19 C-0.38 53.5, 0.8 22.44, -0.39 0.58" stroke="#c92a2a" stroke-width="1" fill="none"></path></g><g transform="translate(617.7857721722313 763.8857233905162) rotate(0 94 12)"><text x="94" y="19" font-family="Cascadia, Segoe UI Emoji" font-size="20px" fill="#c92a2a" text-anchor="middle" style="white-space: pre;" direction="ltr">generateDatabase</text></g><g stroke-linecap="round"><g transform="translate(855.768398259731 586.8180194372364) rotate(0 -47.756501918606546 63.86638540882936)"><path d="M1.15 -0.65 C-14.86 20.56, -79.8 106.78, -96.12 128.38 M0.3 1.63 C-15.81 22.98, -80.38 105.6, -96.66 126.53" stroke="#c92a2a" stroke-width="1" fill="none"></path></g><g transform="translate(855.768398259731 586.8180194372364) rotate(0 -47.756501918606546 63.86638540882936)"><path d="M-88.5 99.26 C-89.04 106.83, -90.83 115.95, -98.43 125.19 M-88.02 98.93 C-89.7 105.59, -92.3 111.65, -97.25 126.88" stroke="#c92a2a" stroke-width="1" fill="none"></path></g><g transform="translate(855.768398259731 586.8180194372364) rotate(0 -47.756501918606546 63.86638540882936)"><path d="M-72.32 111.88 C-77.81 115.83, -84.43 121.19, -98.43 125.19 M-71.84 111.54 C-77.62 115.04, -84.29 117.93, -97.25 126.88" stroke="#c92a2a" stroke-width="1" fill="none"></path></g></g><g stroke-linecap="round" transform="translate(598.4912355774655 982.8841552734375) rotate(0 110.54311752738295 41.11050824159042)"><path d="M76.04 2.3 C89.32 0.14, 107.26 0.5, 122.27 1.18 C137.27 1.87, 152.94 3.69, 166.06 6.4 C179.18 9.1, 191.98 12.82, 201 17.4 C210.03 21.98, 217.65 28.23, 220.23 33.87 C222.8 39.51, 220.58 45.83, 216.45 51.25 C212.32 56.66, 205.05 62.03, 195.45 66.36 C185.86 70.68, 172.73 74.5, 158.9 77.19 C145.07 79.87, 128.03 82.13, 112.46 82.48 C96.88 82.83, 79.49 81.66, 65.44 79.27 C51.39 76.87, 38.19 72.63, 28.15 68.1 C18.1 63.57, 9.69 57.5, 5.16 52.08 C0.62 46.67, -1.19 41.12, 0.94 35.62 C3.08 30.12, 9.55 23.79, 17.96 19.06 C26.37 14.32, 41.24 10.18, 51.4 7.19 C61.57 4.21, 73.31 1.84, 78.94 1.13 C84.58 0.43, 84.73 2.28, 85.21 2.96 M79.33 1.58 C92.54 -0.91, 111.54 -2.02, 126.8 -0.97 C142.07 0.07, 157.75 4.4, 170.92 7.85 C184.1 11.3, 197.68 15.04, 205.87 19.73 C214.05 24.42, 218.21 30.23, 220.04 35.98 C221.87 41.73, 221.37 48.51, 216.86 54.23 C212.35 59.95, 203.82 65.98, 192.97 70.3 C182.12 74.61, 166.04 78.25, 151.76 80.13 C137.48 82, 122.47 81.74, 107.29 81.56 C92.1 81.38, 74.5 81.47, 60.63 79.04 C46.75 76.61, 33.62 71.49, 24.02 66.97 C14.42 62.46, 6.54 57.67, 3.03 51.95 C-0.48 46.23, -0.01 38.21, 2.97 32.65 C5.95 27.1, 12.02 23.41, 20.92 18.65 C29.81 13.89, 46.3 6.72, 56.35 4.11 C66.39 1.49, 77.19 3, 81.19 2.95 C85.2 2.9, 79.89 3.29, 80.39 3.8" stroke="#c92a2a" stroke-width="1" fill="none"></path></g><g transform="translate(603.8522852337543 1011.1952097796766) rotate(0 105.5 12)"><text x="0" y="19" font-family="Cascadia, Segoe UI Emoji" font-size="20px" fill="#c92a2a" text-anchor="start" style="white-space: pre;" direction="ltr">databaseschema.sql</text></g><g stroke-linecap="round" transform="translate(744.2567804730126 1216.6379053973521) rotate(0 133.8843994140625 41.89689636230469)"><path d="M-0.47 1.12 C82.46 2.38, 164.36 0.22, 267.15 -1.05 M0.52 -0.76 C60.86 -1.01, 122.27 -0.9, 268.47 0.38 M268.71 -1.29 C269.68 21.69, 268.72 48.72, 268.94 83.26 M267.38 -0.77 C267.69 17.73, 268.26 33.45, 267.26 83.01 M268.54 82.95 C193.72 83.14, 120.88 82.96, 1.4 82.37 M268.01 83.39 C181.46 86.05, 94.84 84.98, -0.62 83.82 M-0.24 84.01 C-0.65 56.2, -1.61 31.75, -0.2 -0.41 M-0.45 83.87 C-1.29 60.09, -0.01 35.96, 0.78 -0.29" stroke="#8899aa" stroke-width="1" fill="none"></path></g><g transform="translate(806.8512628948876 1246.3363154315318) rotate(0 70.5 12)"><text x="70.5" y="19" font-family="Cascadia, Segoe UI Emoji" font-size="20px" fill="#8899aa" text-anchor="middle" style="white-space: pre;" direction="ltr">runMigration</text></g><g stroke-linecap="round"><g transform="translate(761.0280976743662 1070.902092749463) rotate(0 46.97871995963311 68.00711186895916)"><path d="M-0.18 -0.06 C15.89 22.95, 79.88 114.52, 95.69 137.14 M-1.73 -1.13 C14.32 21.59, 79.31 112.3, 95.25 135.23" stroke="#8899aa" stroke-width="1" fill="none"></path></g><g transform="translate(761.0280976743662 1070.902092749463) rotate(0 46.97871995963311 68.00711186895916)"><path d="M70.5 119.74 C77.03 122.22, 80.49 125.11, 94.84 135.51 M70.15 118.14 C77.72 123.67, 84.52 127.73, 96.22 134.61" stroke="#8899aa" stroke-width="1" fill="none"></path></g><g transform="translate(761.0280976743662 1070.902092749463) rotate(0 46.97871995963311 68.00711186895916)"><path d="M87.25 107.89 C89.67 113.19, 89.11 118.92, 94.84 135.51 M86.9 106.29 C89.64 115.15, 91.67 122.58, 96.22 134.61" stroke="#8899aa" stroke-width="1" fill="none"></path></g></g><g stroke-linecap="round"><g transform="translate(710.3787738274672 822.9024274727678) rotate(0 0.08643337928515393 76.24014936194624)"><path d="M1.05 0.57 C1.26 25.58, 0.23 126.06, 0.31 151.17 M0.15 -0.17 C0.23 25.55, -1.06 127.2, -0.9 152.66" stroke="#c92a2a" stroke-width="1" fill="none"></path></g><g transform="translate(710.3787738274672 822.9024274727678) rotate(0 0.08643337928515393 76.24014936194624)"><path d="M-10.09 123.6 C-8.67 131.83, -6.3 138.01, -1.15 153.77 M-10.15 123.93 C-7.59 134.23, -4.38 143.28, -1.68 152.37" stroke="#c92a2a" stroke-width="1" fill="none"></path></g><g transform="translate(710.3787738274672 822.9024274727678) rotate(0 0.08643337928515393 76.24014936194624)"><path d="M10.43 123.69 C7.27 132.08, 5.06 138.24, -1.15 153.77 M10.37 124.02 C6.21 134.32, 2.7 143.33, -1.68 152.37" stroke="#c92a2a" stroke-width="1" fill="none"></path></g></g><g stroke-linecap="round"><g transform="translate(913.5905451247569 1198.9620512306526) rotate(0 51.07742310412465 -61.97591221135406)"><path d="M-0.69 0.16 C5.09 -11.96, 17.23 -52.61, 34.49 -72.96 C51.74 -93.31, 91.73 -113.82, 102.84 -121.95 M1.15 -0.8 C6.78 -13.22, 16.56 -53.99, 33.48 -74.54 C50.4 -95.09, 91.41 -115.87, 102.68 -124.11" stroke="#8899aa" stroke-width="1" fill="none"></path></g><g transform="translate(913.5905451247569 1198.9620512306526) rotate(0 51.07742310412465 -61.97591221135406)"><path d="M84.49 -100.65 C91.19 -105.13, 95.25 -114.64, 103.6 -122.55 M84.08 -100.08 C90.83 -109.49, 96.08 -115.65, 102.78 -124.06" stroke="#8899aa" stroke-width="1" fill="none"></path></g><g transform="translate(913.5905451247569 1198.9620512306526) rotate(0 51.07742310412465 -61.97591221135406)"><path d="M73.61 -118.05 C83.35 -117.55, 90.48 -122.16, 103.6 -122.55 M73.19 -117.48 C83.75 -121.16, 92.65 -121.48, 102.78 -124.06" stroke="#8899aa" stroke-width="1" fill="none"></path></g></g><g stroke-linecap="round"><g transform="translate(1050.501132380121 1087.2668653958817) rotate(0 -57.65756956497245 59.75671279767647)"><path d="M-0.79 -0.89 C-3.49 9.99, 2.42 44.91, -16.67 64.89 C-35.76 84.86, -98.87 109.99, -115.3 118.97 M1 1.26 C-1.74 12.36, 2.44 46.44, -17.11 66.3 C-36.67 86.15, -99.96 111.46, -116.32 120.4" stroke="#8899aa" stroke-width="1" fill="none"></path></g><g transform="translate(1050.501132380121 1087.2668653958817) rotate(0 -57.65756956497245 59.75671279767647)"><path d="M-96.75 100.62 C-101.31 103.74, -106.14 109.46, -116.26 120.25 M-94.77 99.33 C-103.08 106.84, -111.78 115.24, -117.18 120.7" stroke="#8899aa" stroke-width="1" fill="none"></path></g><g transform="translate(1050.501132380121 1087.2668653958817) rotate(0 -57.65756956497245 59.75671279767647)"><path d="M-87.93 119.14 C-94.77 117.31, -101.93 118.12, -116.26 120.25 M-85.95 117.86 C-97.64 118.05, -109.8 119.18, -117.18 120.7" stroke="#8899aa" stroke-width="1" fill="none"></path></g></g><g stroke-linecap="round"><g transform="translate(1349.726314870646 567.5209885100321) rotate(0 72.09004381362593 108.30670864474624)"><path d="M-0.62 -0.61 C23.45 35.36, 120.73 179.59, 144.8 215.74 M1.25 1.69 C25.2 37.86, 120.6 181.81, 144.2 217.22" stroke="#364fc7" stroke-width="1" fill="none"></path></g><g transform="translate(1349.726314870646 567.5209885100321) rotate(0 72.09004381362593 108.30670864474624)"><path d="M119.04 200.51 C127.81 204.82, 136.59 212.69, 144.87 217.21 M120.99 199.28 C129.84 206.52, 137.64 212.04, 143.97 218.07" stroke="#364fc7" stroke-width="1" fill="none"></path></g><g transform="translate(1349.726314870646 567.5209885100321) rotate(0 72.09004381362593 108.30670864474624)"><path d="M136.14 189.16 C139.27 197.1, 142.44 208.71, 144.87 217.21 M138.08 187.93 C140.5 199.51, 141.9 209.29, 143.97 218.07" stroke="#364fc7" stroke-width="1" fill="none"></path></g></g><g stroke-linecap="round" transform="translate(570.466115800161 264.7158015155162) rotate(0 133.8843994140625 41.89689636230467)"><path d="M-0.15 -0.36 C92.57 0.33, 185.73 -1.21, 266.29 0.43 M-0.11 -0.72 C89 -2.06, 178.93 -0.68, 268.22 -0.77 M267.46 -0.3 C266.16 30.85, 265.87 64.23, 268.44 82.2 M268.38 -0.31 C267.86 31.73, 266.81 65.69, 268.23 83.5 M267.39 83.74 C170.91 83.75, 75.68 84.23, 0.98 84.9 M268.19 84 C164.85 82.41, 62.69 82.65, 0.19 84.25 M0.76 82.02 C-0.11 51.68, -0.32 21.79, -1.07 -1.18 M0.46 83.29 C0.3 52.84, 0.27 20.66, -0.25 -0.1" stroke="#087f5b" stroke-width="1" fill="none"></path></g><g transform="translate(593.6378096261843 294.32091815447234) rotate(0 111.5 12)"><text x="0" y="19" font-family="Cascadia, Segoe UI Emoji" font-size="20px" fill="#087f5b" text-anchor="start" style="white-space: pre;" direction="ltr">introspectDatamodel</text></g><g transform="translate(344.65260872008287 715.8023493670787) rotate(0 74 61.5)"><text x="74" y="33" font-family="Helvetica, Segoe UI Emoji" font-size="36px" fill="#c92a2a" text-anchor="middle" style="white-space: pre;" direction="ltr">database</text><text x="74" y="74" font-family="Helvetica, Segoe UI Emoji" font-size="36px" fill="#c92a2a" text-anchor="middle" style="white-space: pre;" direction="ltr">schema</text><text x="74" y="115" font-family="Helvetica, Segoe UI Emoji" font-size="36px" fill="#c92a2a" text-anchor="middle" style="white-space: pre;" direction="ltr">module</text></g><g stroke-linecap="round" transform="translate(951.2650659954735 263.0286219500865) rotate(0 133.8843994140625 41.89689636230467)"><path d="M-0.68 1.25 C59.44 1.13, 118.48 0.7, 267.21 -1.49 M0.44 -0.73 C99.38 1.69, 198.94 2.25, 268.51 0.14 M265.84 -0.91 C266.99 21.16, 267.12 40.44, 266.91 82.33 M268.07 0.33 C268.06 25.64, 268.67 50.15, 268.54 83.83 M268.41 85.17 C212.05 85.52, 155.93 84.12, -1.32 83.71 M267.13 83.44 C184.22 82.35, 99.98 83.15, -0.43 83.83 M-1.55 84.86 C0.37 61.39, 0.77 34.44, 0.8 1.66 M-0.56 83.32 C-0.61 57.96, 0 32.23, 0.57 0.17" stroke="#087f5b" stroke-width="1" fill="none"></path></g><g transform="translate(990.32619463595 292.93456561540984) rotate(0 99.5 12)"><text x="99.5" y="19" font-family="Cascadia, Segoe UI Emoji" font-size="20px" fill="#087f5b" text-anchor="middle" style="white-space: pre;" direction="ltr">generateDatamodel</text></g><g stroke-linecap="round"><g transform="translate(747.9912607379966 358.4839594964333) rotate(0 42.991153393869354 55.51877822503448)"><path d="M0.91 0.89 C11.36 9.7, 49.45 35.69, 63.64 54 C77.83 72.3, 82.21 101.55, 86.06 110.73 M-0.07 0.3 C10.21 9.77, 48.9 37.02, 63.1 55.08 C77.3 73.13, 81.13 99.56, 85.14 108.64" stroke="#087f5b" stroke-width="1" fill="none"></path></g><g transform="translate(747.9912607379966 358.4839594964333) rotate(0 42.991153393869354 55.51877822503448)"><path d="M68.34 86.15 C72.52 93.2, 81.65 103.24, 83.16 109.62 M66.57 85.77 C71.66 91.74, 78.19 98.1, 85.53 109.08" stroke="#087f5b" stroke-width="1" fill="none"></path></g><g transform="translate(747.9912607379966 358.4839594964333) rotate(0 42.991153393869354 55.51877822503448)"><path d="M87.91 79.96 C84.76 89.49, 86.51 101.87, 83.16 109.62 M86.14 79.58 C85.44 87.54, 86.2 95.73, 85.53 109.08" stroke="#087f5b" stroke-width="1" fill="none"></path></g></g><g stroke-linecap="round"><g transform="translate(843.1016300541263 95.05784499964405) rotate(0 -60.549091417603734 80.41489626274691)"><path d="M-0.74 -1.09 C-20.86 25.99, -100.88 134.84, -121.09 161.92 M1.07 0.96 C-19.19 27.71, -102.03 133.07, -122.17 160.01" stroke="#087f5b" stroke-width="1" fill="none"></path></g><g transform="translate(843.1016300541263 95.05784499964405) rotate(0 -60.549091417603734 80.41489626274691)"><path d="M-114.93 131.01 C-114.98 137.06, -118.32 148.59, -122.96 160.39 M-113.95 130.91 C-116.22 139.17, -117.12 147.55, -123.14 159.82" stroke="#087f5b" stroke-width="1" fill="none"></path></g><g transform="translate(843.1016300541263 95.05784499964405) rotate(0 -60.549091417603734 80.41489626274691)"><path d="M-98.66 143.52 C-103 146.13, -110.68 154.32, -122.96 160.39 M-97.68 143.42 C-104.6 148.23, -110.05 153.11, -123.14 159.82" stroke="#087f5b" stroke-width="1" fill="none"></path></g></g><g stroke-linecap="round"><g transform="translate(792.2583368694969 485.1192438983287) rotate(0 -37.54476619155611 -62.71423427751145)"><path d="M-0.69 0.71 C-10.19 -6.66, -45.13 -22.74, -57.72 -43.57 C-70.31 -64.4, -73.22 -110.85, -76.24 -124.28 M1.15 0.04 C-8.41 -7.28, -46 -21.61, -58.49 -42.64 C-70.99 -63.67, -70.9 -112.21, -73.8 -126.14" stroke="#087f5b" stroke-width="1" fill="none"></path></g><g transform="translate(792.2583368694969 485.1192438983287) rotate(0 -37.54476619155611 -62.71423427751145)"><path d="M-59.33 -98.69 C-65.77 -107.19, -65.48 -113.06, -72.07 -127.76 M-60.85 -98.49 C-64.55 -104.89, -67.29 -112.63, -73.3 -126.67" stroke="#087f5b" stroke-width="1" fill="none"></path></g><g transform="translate(792.2583368694969 485.1192438983287) rotate(0 -37.54476619155611 -62.71423427751145)"><path d="M-79.73 -96.44 C-81.28 -105.37, -76.1 -111.77, -72.07 -127.76 M-81.25 -96.24 C-80.02 -103.28, -77.82 -111.56, -73.3 -126.67" stroke="#087f5b" stroke-width="1" fill="none"></path></g></g><g stroke-linecap="round"><g transform="translate(940.4218915054372 484.2820136691536) rotate(0 53.94681325754209 -65.99475839595199)"><path d="M-1.17 0.49 C17.06 -21.77, 90.83 -110.36, 109.06 -132.48 M0.42 -0.3 C18.53 -21.83, 90.43 -108.53, 108.22 -130.87" stroke="#087f5b" stroke-width="1" fill="none"></path></g><g transform="translate(940.4218915054372 484.2820136691536) rotate(0 53.94681325754209 -65.99475839595199)"><path d="M99.18 -102.2 C101.04 -111.32, 104.2 -119.57, 109 -129.33 M98.04 -102.52 C101.36 -109.66, 103.65 -117.58, 107.44 -131.8" stroke="#087f5b" stroke-width="1" fill="none"></path></g><g transform="translate(940.4218915054372 484.2820136691536) rotate(0 53.94681325754209 -65.99475839595199)"><path d="M83.27 -115.16 C89.65 -120.55, 97.2 -125.22, 109 -129.33 M82.13 -115.49 C89.76 -118.9, 96.49 -123.2, 107.44 -131.8" stroke="#087f5b" stroke-width="1" fill="none"></path></g></g><g stroke-linecap="round"><g transform="translate(1043.8087936961383 253.42834118836777) rotate(0 -51.95496522148818 -76.85850840419091)"><path d="M1.11 -0.93 C-16.13 -26.68, -86.33 -129.42, -103.77 -154.92 M0.23 1.2 C-17.18 -24.3, -87.56 -127.15, -105.02 -153.3" stroke="#087f5b" stroke-width="1" fill="none"></path></g><g transform="translate(1043.8087936961383 253.42834118836777) rotate(0 -51.95496522148818 -76.85850840419091)"><path d="M-82.26 -136.64 C-86.92 -140.76, -91.82 -144.22, -103.76 -153.67 M-80.9 -135.27 C-86.77 -139.78, -93.18 -144.96, -105.45 -153.07" stroke="#087f5b" stroke-width="1" fill="none"></path></g><g transform="translate(1043.8087936961383 253.42834118836777) rotate(0 -51.95496522148818 -76.85850840419091)"><path d="M-99.25 -125.14 C-99.32 -132.5, -99.66 -139.04, -103.76 -153.67 M-97.89 -123.76 C-99.26 -131.28, -101.06 -139.58, -105.45 -153.07" stroke="#087f5b" stroke-width="1" fill="none"></path></g></g><g stroke-linecap="round" transform="translate(1510.9842737591453 1202.962795534071) rotate(0 133.8843994140625 41.89689636230469)"><path d="M-0.36 1.18 C86.61 0.12, 170.4 -0.44, 266.59 -1.53 M0.51 0.46 C79.42 1.18, 157.31 1.7, 267.64 0.67 M268.09 -0.33 C267.47 14.88, 267.44 32.53, 267.06 83.03 M268.12 -0.24 C267.04 20.95, 267.9 42.85, 267.63 83.13 M267.27 83.78 C189.83 84.38, 113.25 85.98, -0.41 85.04 M267.41 83.88 C211.54 84.87, 154.18 84.26, 0.05 84.39 M-1.3 84.68 C0.86 57.98, -2.46 29.79, 0.72 0.8 M0.28 84.45 C0.38 63.62, 1.36 41.94, 0.52 0.67" stroke="#8899aa" stroke-width="1" fill="none"></path></g><g transform="translate(1542.6227644601686 1232.567912173027) rotate(0 105.5 12)"><text x="0" y="19" font-family="Cascadia, Segoe UI Emoji" font-size="20px" fill="#8899aa" text-anchor="start" style="white-space: pre;" direction="ltr">runQueryInDatabase</text></g><g stroke-linecap="round"><g transform="translate(1636.7123165635962 1060.2601058751197) rotate(0 -0.03099724386879643 63.8530766619175)"><path d="M0.61 0.03 C0.83 21.1, 0.3 106.31, 0.37 127.46 M-0.53 -1.01 C-0.4 20.14, -0.86 107.27, -0.69 128.71" stroke="#8899aa" stroke-width="1" fill="none"></path></g><g transform="translate(1636.7123165635962 1060.2601058751197) rotate(0 -0.03099724386879643 63.8530766619175)"><path d="M-10.92 100.19 C-9.34 107.47, -7.96 112.7, -1.13 128.07 M-10.2 101.45 C-7.76 111.53, -2.46 121.88, -1.68 129.27" stroke="#8899aa" stroke-width="1" fill="none"></path></g><g transform="translate(1636.7123165635962 1060.2601058751197) rotate(0 -0.03099724386879643 63.8530766619175)"><path d="M9.6 100.18 C6.63 107.57, 3.47 112.8, -1.13 128.07 M10.32 101.44 C4.68 111.35, 1.88 121.7, -1.68 129.27" stroke="#8899aa" stroke-width="1" fill="none"></path></g></g><g stroke-linecap="round"><g transform="translate(1197.5750575603365 1037.9693151362646) rotate(0 149.96352181039254 93.6255124412113)"><path d="M1.18 -1.12 C51.29 30.25, 249.83 157.07, 299.59 188.37 M0.34 0.91 C50.42 31.96, 249.04 155.7, 298.86 186.83" stroke="#8899aa" stroke-width="1" fill="none"></path></g><g transform="translate(1197.5750575603365 1037.9693151362646) rotate(0 149.96352181039254 93.6255124412113)"><path d="M267.65 181.33 C277.62 182.63, 281.03 182.5, 297.74 188.54 M268.8 180.18 C280.66 182.12, 292.29 185.16, 298.89 187.77" stroke="#8899aa" stroke-width="1" fill="none"></path></g><g transform="translate(1197.5750575603365 1037.9693151362646) rotate(0 149.96352181039254 93.6255124412113)"><path d="M278.51 163.92 C286.19 169.03, 287.29 172.61, 297.74 188.54 M279.66 162.76 C287.17 171.75, 294.47 181.72, 298.89 187.77" stroke="#8899aa" stroke-width="1" fill="none"></path></g></g><g stroke-linecap="round" transform="translate(1529.4870851868404 1440.4503555297852) rotate(0 110.54311752738295 41.11050824159042)"><path d="M95.1 0.1 C109.22 -1.31, 127.6 -0.66, 142.53 1.19 C157.46 3.05, 173.09 7.49, 184.68 11.25 C196.28 15.02, 205.91 18.79, 212.08 23.76 C218.26 28.72, 222.22 35.06, 221.74 41.05 C221.26 47.04, 216.16 54.55, 209.2 59.7 C202.25 64.86, 191.81 68.39, 180.02 71.99 C168.24 75.59, 153.2 79.71, 138.49 81.3 C123.78 82.88, 106.91 82.7, 91.77 81.5 C76.62 80.29, 60.26 77.15, 47.64 74.07 C35.02 70.99, 23.87 67.78, 16.04 63.03 C8.22 58.28, 2.51 51.32, 0.69 45.55 C-1.13 39.78, 0.36 33.95, 5.15 28.41 C9.94 22.88, 18.74 16.71, 29.45 12.35 C40.15 8, 57.31 4.38, 69.37 2.3 C81.44 0.23, 95.39 -0.01, 101.84 -0.11 C108.29 -0.22, 108.1 0.94, 108.08 1.66 M80.47 0.55 C93.84 -1.72, 112.32 -1.26, 127.47 -0.31 C142.63 0.65, 158.38 2.94, 171.41 6.26 C184.43 9.59, 197.47 14.71, 205.64 19.65 C213.81 24.59, 218.48 30.38, 220.41 35.91 C222.35 41.44, 221.85 47.28, 217.23 52.83 C212.61 58.37, 203.63 64.99, 192.71 69.21 C181.8 73.42, 165.86 76.14, 151.75 78.13 C137.63 80.12, 123.3 81.11, 108 81.14 C92.71 81.17, 74.02 80.67, 59.96 78.3 C45.89 75.94, 33.22 71.29, 23.61 66.96 C14.01 62.62, 5.95 57.84, 2.32 52.29 C-1.32 46.73, -1.44 39.41, 1.81 33.63 C5.07 27.85, 13.07 22.5, 21.85 17.62 C30.62 12.73, 44.66 6.97, 54.47 4.31 C64.27 1.65, 76.32 2.07, 80.69 1.67 C85.06 1.28, 80.18 1.21, 80.67 1.94" stroke="#364fc7" stroke-width="1" fill="none"></path></g><g transform="translate(1581.6870020306292 1469.5535395526258) rotate(0 64.5 12)"><text x="0" y="19" font-family="Cascadia, Segoe UI Emoji" font-size="20px" fill="#364fc7" text-anchor="start" style="white-space: pre;" direction="ltr">result.json</text></g><g stroke-linecap="round"><g transform="translate(1636.8699695626337 1296.1827026299782) rotate(0 -0.177891960109946 67.10208673209729)"><path d="M0.45 -0.48 C0.38 21.93, 0.45 111.99, 0.59 134.56 M-0.77 -1.77 C-1.13 20.8, -0.88 112.96, -0.64 135.98" stroke="#8899aa" stroke-width="1" fill="none"></path></g><g transform="translate(1636.8699695626337 1296.1827026299782) rotate(0 -0.177891960109946 67.10208673209729)"><path d="M-11.86 106.93 C-7.39 118.97, -2.77 131.36, 1.23 137.2 M-10.57 108.39 C-7.15 118.85, -2.85 128.09, -0.73 136.89" stroke="#8899aa" stroke-width="1" fill="none"></path></g><g transform="translate(1636.8699695626337 1296.1827026299782) rotate(0 -0.177891960109946 67.10208673209729)"><path d="M8.67 106.82 C5.22 118.97, 1.94 131.41, 1.23 137.2 M9.95 108.27 C5.99 118.82, 2.92 128.1, -0.73 136.89" stroke="#8899aa" stroke-width="1" fill="none"></path></g></g><g transform="translate(1795.3932703411765 733.5241206073131) rotate(0 59 41)"><text x="59" y="33" font-family="Helvetica, Segoe UI Emoji" font-size="36px" fill="#364fc7" text-anchor="middle" style="white-space: pre;" direction="ltr">query</text><text x="59" y="74" font-family="Helvetica, Segoe UI Emoji" font-size="36px" fill="#364fc7" text-anchor="middle" style="white-space: pre;" direction="ltr">module</text></g><g transform="translate(340.8483179485984 263.7258112811412) rotate(0 84 41)"><text x="84" y="33" font-family="Helvetica, Segoe UI Emoji" font-size="36px" fill="#087f5b" text-anchor="middle" style="white-space: pre;" direction="ltr">datamodel</text><text x="84" y="74" font-family="Helvetica, Segoe UI Emoji" font-size="36px" fill="#087f5b" text-anchor="middle" style="white-space: pre;" direction="ltr">module</text></g><g stroke-linecap="round" transform="translate(1434.1979578411765 676.2872126483287) rotate(0 261.39337158203125 96.51364135742188)"><path d="M48.26 0 M48.26 0 C194.18 -1.11, 341.19 -1.55, 474.53 0 M474.53 0 C505.17 0.31, 523.86 16.78, 522.79 48.26 M522.79 48.26 C524.72 71.36, 524.47 89.66, 522.79 144.77 M522.79 144.77 C522.41 176.33, 504.82 192.66, 474.53 193.03 M474.53 193.03 C323.24 192.33, 173.09 193.51, 48.26 193.03 M48.26 193.03 C16.79 192.26, 1.32 178.32, 0 144.77 M0 144.77 C0.74 113.44, 0.91 79.78, 0 48.26 M0 48.26 C-1.2 17.48, 16.73 -1.32, 48.26 0" stroke="#364fc7" stroke-width="4.5" fill="none" stroke-dasharray="1.5 10"></path></g><g stroke-linecap="round" transform="translate(311.07582649352037 206.13917187684433) rotate(0 473.981689453125 96.51364135742188)"><path d="M48.26 0 M48.26 0 C338.65 -0.77, 627.06 -1.74, 899.71 0 M899.71 0 C932.3 -0.73, 948.44 16.72, 947.96 48.26 M947.96 48.26 C949.68 78.04, 946.59 106.98, 947.96 144.77 M947.96 144.77 C947.12 176.09, 929.92 193.88, 899.71 193.03 M899.71 193.03 C579.04 191.61, 258.77 191.62, 48.26 193.03 M48.26 193.03 C17.72 191.41, -0.82 177.42, 0 144.77 M0 144.77 C-0.8 111.8, 1.47 76.61, 0 48.26 M0 48.26 C-0.05 16.96, 14.3 0.61, 48.26 0" stroke="#087f5b" stroke-width="4.5" fill="none" stroke-dasharray="1.5 10"></path></g><g stroke-linecap="round" transform="translate(302.3233240521141 679.1756251239146) rotate(0 473.981689453125 96.51364135742188)"><path d="M48.26 0 M48.26 0 C369.3 2.12, 689.22 1.22, 899.71 0 M899.71 0 C933.54 1.97, 949.69 16.76, 947.96 48.26 M947.96 48.26 C950.51 83.53, 949.45 121.04, 947.96 144.77 M947.96 144.77 C949.26 175.78, 930.79 194.9, 899.71 193.03 M899.71 193.03 C665.86 190.23, 432.33 189.96, 48.26 193.03 M48.26 193.03 C16.51 192.85, 1.61 178.01, 0 144.77 M0 144.77 C0.85 126.85, 0.66 106.04, 0 48.26 M0 48.26 C-1.85 16.52, 16.94 -0.71, 48.26 0" stroke="#c92a2a" stroke-width="4.5" fill="none" stroke-dasharray="1.5 10"></path></g><g stroke-linecap="round" transform="translate(1513.5163985963836 257.8807871722545) rotate(0 133.8843994140625 41.89689636230467)"><path d="M-1.13 1.19 C67.86 2.22, 133.6 3.36, 268.64 1.51 M0.69 0.47 C97.22 1.16, 194.07 1.93, 268.08 0.24 M268.56 0.85 C268.7 32.18, 268.76 65.41, 269.14 84.89 M268.51 0.06 C267.57 31.71, 266.3 63.99, 268.19 83.9 M269.1 85.32 C204.36 82.77, 141.04 84.61, 0.3 82.98 M267.38 84.57 C208.2 85.12, 149.44 84.71, 0.05 83.88 M-1.77 84.83 C-1.63 52.43, -0.47 25.38, -1.61 1.65 M0.41 84.52 C-0.48 61.43, -0.72 36.72, 0.13 0.55" stroke="#e67700" stroke-width="1" fill="none"></path></g><g transform="translate(1525.398297500532 287.4859038112106) rotate(0 123 12)"><text x="0" y="19" font-family="Cascadia, Segoe UI Emoji" font-size="20px" fill="#e67700" text-anchor="start" style="white-space: pre;" direction="ltr">generateGraphQlSchema</text></g><g stroke-linecap="round" transform="translate(1531.856887026032 10) rotate(0 110.54311752738295 41.11050824159043)"><path d="M140.71 0.72 C155.23 1.6, 171.52 6.73, 183.26 10.46 C195.01 14.2, 204.87 18, 211.18 23.14 C217.49 28.28, 221.09 35.4, 221.12 41.3 C221.16 47.21, 217.68 53.27, 211.4 58.57 C205.11 63.87, 195.24 69.36, 183.42 73.1 C171.61 76.85, 155.41 79.58, 140.51 81.04 C125.61 82.5, 109.26 82.79, 94.04 81.87 C78.82 80.96, 62.12 78.62, 49.2 75.55 C36.27 72.48, 24.45 68.2, 16.48 63.44 C8.51 58.68, 3.4 52.86, 1.39 46.96 C-0.63 41.07, -0.3 33.64, 4.4 28.05 C9.1 22.47, 19.01 17.63, 29.61 13.47 C40.2 9.31, 54.03 5.29, 67.96 3.1 C81.9 0.9, 98.9 0.26, 113.21 0.29 C127.51 0.33, 145.37 2.29, 153.78 3.32 C162.19 4.34, 164.43 5.69, 163.67 6.44 M160.92 5.23 C174.8 7.29, 189.1 10.79, 198.47 15.29 C207.84 19.78, 213.61 26.61, 217.14 32.2 C220.67 37.79, 222.38 43.38, 219.65 48.84 C216.92 54.29, 210.11 60.17, 200.78 64.92 C191.45 69.66, 177.55 74.42, 163.67 77.31 C149.79 80.19, 132.84 81.72, 117.49 82.22 C102.15 82.73, 85.8 82.44, 71.58 80.34 C57.36 78.23, 43.24 73.67, 32.19 69.59 C21.13 65.51, 10.72 61.41, 5.24 55.85 C-0.23 50.28, -2.15 41.97, -0.65 36.2 C0.84 30.43, 6.64 25.75, 14.22 21.21 C21.79 16.67, 32.33 12.29, 44.81 8.97 C57.29 5.65, 73.99 2.46, 89.1 1.27 C104.2 0.07, 123.1 1.26, 135.44 1.79 C147.77 2.32, 158.63 3.93, 163.09 4.43 C167.55 4.93, 163.41 4.11, 162.19 4.8" stroke="#e67700" stroke-width="1" fill="none"></path></g><g transform="translate(1564.6999923463832 38.61050824159065) rotate(0 82 12)"><text x="0" y="19" font-family="Cascadia, Segoe UI Emoji" font-size="20px" fill="#e67700" text-anchor="start" style="white-space: pre;" direction="ltr">schema.graphql</text></g><g stroke-linecap="round"><g transform="translate(1641.6101683475058 252.90245361288294) rotate(0 0.919662617194831 -79.24881656716269)"><path d="M0.66 1.15 C1.13 -25.65, 2.31 -133.02, 2.29 -159.65 M-0.45 0.71 C-0.03 -25.37, 1.17 -131.24, 1.73 -158.1" stroke="#e67700" stroke-width="1" fill="none"></path></g><g transform="translate(1641.6101683475058 252.90245361288294) rotate(0 0.919662617194831 -79.24881656716269)"><path d="M13.48 -128.5 C8.81 -138.65, 7.98 -143.08, 2.23 -159.6 M11.86 -128.84 C9.3 -138.64, 5.92 -146.5, 1.87 -158.4" stroke="#e67700" stroke-width="1" fill="none"></path></g><g transform="translate(1641.6101683475058 252.90245361288294) rotate(0 0.919662617194831 -79.24881656716269)"><path d="M-7.04 -128.82 C-6.43 -139, -1.98 -143.34, 2.23 -159.6 M-8.66 -129.16 C-4.99 -138.95, -2.14 -146.7, 1.87 -158.4" stroke="#e67700" stroke-width="1" fill="none"></path></g></g><g transform="translate(1804.040624467153 235.73790030009422) rotate(0 63 61.5)"><text x="63" y="33" font-family="Helvetica, Segoe UI Emoji" font-size="36px" fill="#e67700" text-anchor="middle" style="white-space: pre;" direction="ltr">graphql</text><text x="63" y="74" font-family="Helvetica, Segoe UI Emoji" font-size="36px" fill="#e67700" text-anchor="middle" style="white-space: pre;" direction="ltr">schema</text><text x="63" y="115" font-family="Helvetica, Segoe UI Emoji" font-size="36px" fill="#e67700" text-anchor="middle" style="white-space: pre;" direction="ltr">module</text></g><g stroke-linecap="round" transform="translate(1440.227865067739 201.23423819071922) rotate(0 261.39337158203125 96.51364135742188)"><path d="M48.26 0 M48.26 0 C177.96 0.06, 307.86 -1.24, 474.53 0 M474.53 0 C507.49 0.85, 523.06 15.48, 522.79 48.26 M522.79 48.26 C523.81 80.4, 521.1 108.17, 522.79 144.77 M522.79 144.77 C524.26 177.07, 507.64 192.73, 474.53 193.03 M474.53 193.03 C380.48 193.28, 286.51 194.1, 48.26 193.03 M48.26 193.03 C17.77 194.96, -0.78 175.28, 0 144.77 M0 144.77 C-1.35 121.18, -0.03 101.98, 0 48.26 M0 48.26 C-0.98 18.05, 15.15 0.05, 48.26 0" stroke="#e67700" stroke-width="4.5" fill="none" stroke-dasharray="1.5 10"></path></g><g stroke-linecap="round"><g transform="translate(1340.6983390918003 483.3679686414128) rotate(0 81.95081740652768 -87.30980945534327)"><path d="M1.11 0.63 C28.31 -28.64, 136.55 -146.13, 163.66 -175.25 M0.24 -0.09 C27.26 -29.28, 135.72 -145.51, 162.88 -174.29" stroke="#e67700" stroke-width="1" fill="none"></path></g><g transform="translate(1340.6983390918003 483.3679686414128) rotate(0 81.95081740652768 -87.30980945534327)"><path d="M152.13 -146.17 C153.18 -155.51, 159.11 -164.81, 161.28 -174.73 M151.26 -146.47 C154.12 -153.88, 155.22 -159.9, 163.64 -175.28" stroke="#e67700" stroke-width="1" fill="none"></path></g><g transform="translate(1340.6983390918003 483.3679686414128) rotate(0 81.95081740652768 -87.30980945534327)"><path d="M137.16 -160.21 C143.35 -164.91, 154.37 -169.43, 161.28 -174.73 M136.29 -160.51 C142.68 -164.89, 147.16 -167.73, 163.64 -175.28" stroke="#e67700" stroke-width="1" fill="none"></path></g></g><g stroke-linecap="round" transform="translate(1488.8975199139304 721.3505272981224) rotate(0 21.639819675021727 21.639819675021727)"><path d="M16.96 -0.3 C21.13 -1.94, 27.07 -0.86, 31.1 1.44 C35.14 3.74, 39.12 9.06, 41.18 13.48 C43.24 17.9, 44.75 23.53, 43.45 27.96 C42.15 32.39, 37.45 37.7, 33.39 40.07 C29.33 42.44, 23.57 42.64, 19.08 42.19 C14.58 41.74, 9.74 40.56, 6.42 37.38 C3.09 34.19, -0.63 27.88, -0.86 23.08 C-1.1 18.28, 1.84 12.35, 5 8.59 C8.15 4.82, 15.47 1.72, 18.05 0.49 C20.63 -0.74, 20.24 0.77, 20.48 1.21 M29.9 1.59 C34.13 2.75, 39.68 7.54, 41.6 11.53 C43.51 15.52, 42.4 20.8, 41.39 25.53 C40.39 30.26, 39.02 36.84, 35.55 39.92 C32.08 42.99, 25.37 44.57, 20.57 44.01 C15.77 43.45, 9.94 39.66, 6.76 36.56 C3.57 33.46, 1.86 29.85, 1.46 25.42 C1.07 20.98, 1.9 14.03, 4.39 9.94 C6.88 5.85, 12.21 2.39, 16.4 0.86 C20.6 -0.67, 27.47 0.37, 29.55 0.77 C31.63 1.17, 28.86 2.55, 28.88 3.25" stroke="none" stroke-width="0" fill="#868e96"></path><path d="M13.16 2.06 C17.06 -0.25, 22.32 -1.19, 26.67 -0.13 C31.02 0.94, 36.4 4.58, 39.27 8.45 C42.15 12.33, 44.32 18.35, 43.92 23.12 C43.52 27.88, 40.26 33.69, 36.88 37.04 C33.49 40.4, 28.33 43.02, 23.63 43.25 C18.93 43.47, 12.34 41.1, 8.68 38.4 C5.01 35.71, 2.87 31.53, 1.65 27.08 C0.43 22.63, -0.94 15.91, 1.35 11.73 C3.65 7.55, 12.65 3.77, 15.43 1.99 C18.21 0.21, 17.87 0.97, 18.02 1.03 M29.87 2.73 C34.2 4.16, 39.7 7.67, 41.72 11.76 C43.74 15.86, 43.31 22.52, 41.99 27.28 C40.66 32.04, 37.16 37.9, 33.75 40.31 C30.34 42.72, 25.86 42.51, 21.55 41.75 C17.25 40.99, 11.42 38.66, 7.91 35.75 C4.4 32.83, 1.06 28.48, 0.5 24.27 C-0.07 20.06, 1.83 14.44, 4.5 10.49 C7.18 6.55, 12.34 1.96, 16.54 0.58 C20.73 -0.79, 27.51 1.9, 29.69 2.22 C31.87 2.54, 29.87 2.01, 29.64 2.52" stroke="#343a40" stroke-width="1" fill="none"></path></g><g transform="translate(1505.9721811688132 730.236377992567) rotate(0 5.5 11.5)"><text x="5.5" y="18" font-family="Helvetica, Segoe UI Emoji" font-size="20px" fill="#ffffff" text-anchor="middle" style="white-space: pre;" direction="ltr">1</text></g><g stroke-linecap="round" transform="translate(1493.8341815282429 239.7658342371417) rotate(0 21.639819675021727 21.63981967502174)"><path d="M23.34 0.97 C27.71 1.09, 33.32 2.77, 36.71 5.85 C40.11 8.94, 43.09 14.69, 43.69 19.46 C44.29 24.23, 43.15 30.58, 40.3 34.48 C37.45 38.37, 31.19 41.58, 26.59 42.85 C21.98 44.13, 16.6 44.2, 12.66 42.12 C8.73 40.05, 5.1 34.54, 2.98 30.4 C0.87 26.26, -0.96 21.56, -0.03 17.27 C0.9 12.97, 4.58 7.39, 8.57 4.65 C12.56 1.92, 21.16 1.45, 23.9 0.85 C26.65 0.25, 25.05 0.81, 25.04 1.05 M19.73 -0.39 C24.4 -0.44, 31.86 3.32, 35.47 6.03 C39.07 8.73, 40.71 11.31, 41.36 15.83 C42.02 20.35, 41.16 28.71, 39.4 33.15 C37.65 37.58, 35 40.8, 30.82 42.45 C26.64 44.11, 18.91 44.87, 14.33 43.06 C9.75 41.26, 5.66 35.72, 3.35 31.63 C1.05 27.54, 0.12 22.77, 0.52 18.54 C0.93 14.3, 2.46 9.43, 5.78 6.23 C9.1 3.02, 17.84 0.04, 20.43 -0.68 C23.01 -1.4, 21.39 1.36, 21.29 1.89" stroke="none" stroke-width="0" fill="#868e96"></path><path d="M29.28 1.41 C33.52 2.53, 37.29 6.42, 39.68 10.3 C42.07 14.18, 44.23 20.13, 43.64 24.69 C43.04 29.25, 39.8 34.57, 36.11 37.68 C32.43 40.79, 26.03 43.17, 21.52 43.35 C17.02 43.52, 12.56 41.6, 9.09 38.73 C5.61 35.85, 1.75 30.71, 0.68 26.12 C-0.4 21.53, 0.59 15.32, 2.63 11.18 C4.67 7.04, 8.44 2.85, 12.92 1.29 C17.4 -0.28, 26.49 1.48, 29.48 1.8 C32.47 2.12, 30.97 3.06, 30.86 3.23 M14.21 -0.3 C18.44 -1.74, 26.69 0.21, 31.22 2.31 C35.75 4.4, 39.65 8.28, 41.37 12.26 C43.09 16.24, 42.73 21.54, 41.54 26.18 C40.34 30.83, 37.71 37.47, 34.2 40.15 C30.7 42.83, 25.19 42.68, 20.49 42.25 C15.8 41.82, 9.53 40.71, 6.05 37.58 C2.58 34.44, 0.17 27.97, -0.38 23.43 C-0.93 18.89, 0.01 14.34, 2.76 10.34 C5.51 6.35, 14.03 0.99, 16.1 -0.55 C18.17 -2.09, 15.34 0.35, 15.18 1.1" stroke="#343a40" stroke-width="1" fill="none"></path></g><g transform="translate(1510.9088427831257 248.65168493158626) rotate(0 5.5 11.5)"><text x="5.5" y="18" font-family="Helvetica, Segoe UI Emoji" font-size="20px" fill="#ffffff" text-anchor="middle" style="white-space: pre;" direction="ltr">2</text></g><g stroke-linecap="round" transform="translate(559.3777758885946 715.6796449671222) rotate(0 21.639819675021727 21.639819675021727)"><path d="M27.16 0.12 C31.52 0.61, 36.05 4.34, 38.74 8.04 C41.42 11.74, 43.39 17.52, 43.26 22.34 C43.13 27.15, 41.09 33.62, 37.94 36.95 C34.79 40.27, 28.95 41.92, 24.36 42.28 C19.77 42.65, 14.38 41.34, 10.39 39.13 C6.4 36.92, 1.92 33.13, 0.4 29 C-1.12 24.86, -0.59 18.69, 1.25 14.3 C3.09 9.91, 6.82 4.83, 11.43 2.67 C16.03 0.5, 25.47 1.41, 28.88 1.3 C32.29 1.19, 31.99 1.78, 31.88 2.01 M27.41 0.09 C31.49 1.01, 35.96 6.81, 38.79 10.45 C41.62 14.1, 44.67 17.35, 44.36 21.97 C44.06 26.59, 40.6 34.5, 36.99 38.18 C33.38 41.85, 27.42 43.63, 22.73 44.04 C18.04 44.45, 12.27 43.43, 8.84 40.63 C5.42 37.83, 3.43 31.64, 2.19 27.23 C0.94 22.82, -0.13 18.55, 1.38 14.17 C2.88 9.79, 7.06 3.03, 11.2 0.95 C15.33 -1.14, 23.41 1.73, 26.18 1.64 C28.95 1.55, 28.01 0.36, 27.82 0.39" stroke="none" stroke-width="0" fill="#868e96"></path><path d="M13.71 2.15 C17.65 0.42, 24.43 -0.23, 29.02 1.13 C33.61 2.48, 38.95 6.31, 41.26 10.28 C43.56 14.25, 43.99 20.35, 42.88 24.96 C41.76 29.57, 38.23 34.85, 34.59 37.93 C30.95 41, 25.42 43.27, 21.05 43.42 C16.68 43.57, 11.84 41.95, 8.36 38.83 C4.88 35.72, 0.94 29.44, 0.17 24.72 C-0.61 20.01, 0.76 14.72, 3.72 10.54 C6.67 6.36, 14.74 1.44, 17.9 -0.36 C21.05 -2.17, 22.51 -0.68, 22.65 -0.31 M20.38 -0.76 C25.04 -1.09, 33.12 1.6, 36.9 4.9 C40.69 8.19, 42.51 14.33, 43.1 19.01 C43.68 23.69, 42.98 28.93, 40.42 32.97 C37.87 37, 32.14 41.86, 27.76 43.23 C23.37 44.6, 18.33 43.07, 14.12 41.2 C9.9 39.32, 4.85 35.83, 2.46 31.96 C0.07 28.09, -0.96 22.53, -0.22 17.97 C0.52 13.41, 3.15 7.82, 6.92 4.61 C10.69 1.4, 19.81 -0.47, 22.39 -1.3 C24.97 -2.13, 22.39 -0.88, 22.4 -0.36" stroke="#343a40" stroke-width="1" fill="none"></path></g><g transform="translate(576.4524371434774 724.5654956615667) rotate(0 5.5 11.5)"><text x="5.5" y="18" font-family="Helvetica, Segoe UI Emoji" font-size="20px" fill="#ffffff" text-anchor="middle" style="white-space: pre;" direction="ltr">3</text></g><g stroke-linecap="round" transform="translate(553.737517099532 249.1823762903644) rotate(0 21.639819675021727 21.639819675021748)"><path d="M14.95 2.13 C19.08 0.15, 25.93 -0.77, 30.33 0.61 C34.73 1.99, 39.22 6.22, 41.37 10.42 C43.51 14.63, 44.12 21.07, 43.21 25.87 C42.31 30.66, 39.48 36.35, 35.94 39.21 C32.39 42.06, 26.74 43.2, 21.93 43 C17.13 42.8, 10.64 40.95, 7.1 38.01 C3.57 35.08, 1.36 29.95, 0.71 25.39 C0.05 20.83, 0.26 14.68, 3.18 10.65 C6.11 6.62, 15.55 2.78, 18.24 1.19 C20.92 -0.39, 19.4 0.85, 19.28 1.14 M22.42 1.18 C26.8 1.03, 31.09 2.21, 34.6 4.95 C38.11 7.7, 42.62 13.16, 43.47 17.63 C44.32 22.11, 42.11 27.97, 39.69 31.81 C37.27 35.66, 33.04 38.9, 28.94 40.71 C24.84 42.52, 19.49 44.02, 15.08 42.67 C10.66 41.33, 4.9 36.67, 2.42 32.65 C-0.05 28.63, -0.51 23.06, 0.21 18.55 C0.92 14.04, 3.02 8.61, 6.71 5.57 C10.39 2.53, 19.97 0.92, 22.31 0.31 C24.65 -0.3, 21.1 1.55, 20.74 1.92" stroke="none" stroke-width="0" fill="#868e96"></path><path d="M13.36 1.49 C17.42 -0.44, 23.29 -0.63, 27.67 0.67 C32.05 1.98, 37.02 5.26, 39.64 9.34 C42.27 13.42, 43.79 20.37, 43.4 25.13 C43.02 29.89, 40.62 34.76, 37.34 37.89 C34.06 41.03, 28.59 43.91, 23.7 43.94 C18.81 43.97, 11.8 41.07, 7.99 38.09 C4.19 35.11, 1.89 30.3, 0.89 26.05 C-0.1 21.8, -0.89 16.85, 2 12.57 C4.89 8.3, 14.46 2.3, 18.24 0.4 C22.01 -1.5, 24.4 0.91, 24.66 1.19 M24.13 0.83 C28.16 0.79, 33.1 2.34, 36.37 5.64 C39.64 8.94, 43.12 15.69, 43.74 20.64 C44.36 25.58, 43.03 31.63, 40.1 35.33 C37.17 39.02, 31.14 41.83, 26.16 42.82 C21.17 43.8, 14.39 43.25, 10.17 41.24 C5.96 39.23, 2.58 35.22, 0.88 30.77 C-0.82 26.32, -1.65 19.07, -0.02 14.53 C1.6 9.98, 6.63 5.98, 10.64 3.48 C14.65 0.98, 21.67 0.14, 24.06 -0.48 C26.45 -1.09, 24.77 -0.64, 24.98 -0.23" stroke="#343a40" stroke-width="1" fill="none"></path></g><g transform="translate(570.8121783544149 258.068226984809) rotate(0 5.5 11.499999999999993)"><text x="5.5" y="18" font-family="Helvetica, Segoe UI Emoji" font-size="20px" fill="#ffffff" text-anchor="middle" style="white-space: pre;" direction="ltr">4</text></g><g stroke-linecap="round" transform="translate(925.0931842137901 719.1791719446613) rotate(0 21.639819675021727 21.639819675021727)"><path d="M11.93 1.8 C16.03 -0.36, 23.55 -0.27, 28.28 0.92 C33.01 2.11, 37.86 5.14, 40.31 8.93 C42.75 12.73, 43.62 19.01, 42.97 23.7 C42.32 28.39, 39.59 33.87, 36.42 37.07 C33.25 40.27, 28.4 42.6, 23.94 42.89 C19.47 43.17, 13.51 41.52, 9.63 38.77 C5.75 36.02, 2.06 30.6, 0.64 26.36 C-0.77 22.11, -1.72 17.69, 1.15 13.3 C4.02 8.92, 14.34 2.23, 17.85 0.06 C21.36 -2.11, 22.43 -0.08, 22.21 0.28 M24.28 0.52 C28.73 0.74, 35.34 3.5, 38.73 6.85 C42.13 10.21, 44.82 15.68, 44.66 20.66 C44.5 25.63, 41.12 33.1, 37.78 36.72 C34.43 40.34, 29.12 41.79, 24.59 42.37 C20.06 42.95, 14.39 42.2, 10.6 40.21 C6.8 38.22, 3.6 34.64, 1.8 30.41 C0.01 26.19, -1.55 19.55, -0.15 14.88 C1.25 10.21, 5.92 4.69, 10.2 2.41 C14.48 0.12, 23.04 1.24, 25.53 1.16 C28.01 1.09, 25.09 1.48, 25.11 1.93" stroke="none" stroke-width="0" fill="#868e96"></path><path d="M26.62 1.43 C30.8 2.21, 36.25 5.08, 39.13 8.8 C42.01 12.51, 44.3 19.15, 43.87 23.72 C43.44 28.29, 39.96 33.03, 36.54 36.2 C33.12 39.37, 27.97 42.07, 23.35 42.73 C18.73 43.39, 12.72 42.62, 8.82 40.15 C4.92 37.69, 1.05 32.59, -0.04 27.94 C-1.14 23.29, 0.1 16.54, 2.26 12.25 C4.43 7.96, 8.22 3.73, 12.96 2.21 C17.69 0.7, 27.03 2.65, 30.69 3.14 C34.35 3.64, 35.01 4.99, 34.92 5.18 M10.58 3.1 C14.31 1.2, 22.18 1.24, 27.01 2.01 C31.84 2.79, 36.73 4.12, 39.54 7.75 C42.34 11.38, 43.98 19.24, 43.85 23.79 C43.72 28.34, 41.83 31.89, 38.76 35.05 C35.68 38.21, 30.14 42.08, 25.39 42.73 C20.64 43.37, 14.38 41.41, 10.27 38.91 C6.15 36.42, 1.92 31.84, 0.7 27.76 C-0.51 23.68, 0.98 18.87, 2.97 14.44 C4.96 10.01, 11.37 3.1, 12.66 1.18 C13.94 -0.74, 10.59 2.36, 10.68 2.91" stroke="#343a40" stroke-width="1" fill="none"></path></g><g transform="translate(942.1678454686729 728.0650226391061) rotate(0 5.5 11.5)"><text x="5.5" y="18" font-family="Helvetica, Segoe UI Emoji" font-size="20px" fill="#ffffff" text-anchor="middle" style="white-space: pre;" direction="ltr">5</text></g><g stroke-linecap="round" transform="translate(932.6536853124229 244.3108552942706) rotate(0 21.639819675021727 21.639819675021748)"><path d="M19.23 -0.18 C23.71 -0.91, 29.88 1.02, 33.68 3.53 C37.49 6.04, 40.76 10.59, 42.04 14.87 C43.32 19.16, 43.18 24.75, 41.38 29.23 C39.58 33.71, 35.42 39.66, 31.23 41.75 C27.04 43.84, 20.64 43.02, 16.25 41.75 C11.86 40.49, 7.76 37.61, 4.9 34.16 C2.04 30.71, -1.15 25.58, -0.9 21.05 C-0.65 16.52, 2.49 10.35, 6.38 6.99 C10.27 3.63, 19.33 2.06, 22.43 0.9 C25.53 -0.25, 25.18 -0.07, 24.98 0.06 M12.67 1.71 C16.26 -0.5, 22.1 1.07, 26.53 2.07 C30.95 3.08, 36.22 4.22, 39.21 7.75 C42.19 11.29, 44.9 18.64, 44.43 23.3 C43.97 27.96, 39.74 32.46, 36.4 35.71 C33.07 38.96, 28.94 42.16, 24.4 42.81 C19.86 43.46, 13.28 42.25, 9.17 39.6 C5.06 36.95, 0.78 31.51, -0.28 26.93 C-1.33 22.35, 0.98 16.34, 2.84 12.11 C4.71 7.88, 9.17 2.93, 10.89 1.57 C12.6 0.22, 12.74 3.34, 13.13 3.99" stroke="none" stroke-width="0" fill="#868e96"></path><path d="M25.61 0.27 C29.83 0.67, 34.66 3.24, 37.76 6.77 C40.87 10.29, 44.26 16.69, 44.23 21.42 C44.21 26.15, 40.88 31.63, 37.62 35.14 C34.36 38.64, 29.27 41.69, 24.67 42.46 C20.08 43.23, 14.09 41.84, 10.05 39.74 C6.02 37.64, 1.75 34.02, 0.44 29.88 C-0.86 25.75, 0.59 19.46, 2.21 14.95 C3.83 10.43, 6.18 5.06, 10.17 2.77 C14.16 0.49, 23.2 1.53, 26.15 1.25 C29.1 0.96, 27.68 0.68, 27.88 1.04 M32.49 2.71 C36.25 4.48, 39.61 8.7, 41.05 12.99 C42.49 17.29, 42.44 24.02, 41.16 28.49 C39.87 32.97, 36.86 37.17, 33.36 39.84 C29.86 42.51, 24.76 45.2, 20.17 44.51 C15.58 43.83, 9.05 39.4, 5.81 35.74 C2.57 32.09, 0.79 27.08, 0.73 22.59 C0.67 18.09, 2.75 12.53, 5.43 8.78 C8.12 5.03, 12.6 1.13, 16.86 0.08 C21.11 -0.97, 28.64 2.1, 30.98 2.47 C33.32 2.84, 30.8 1.84, 30.87 2.32" stroke="#343a40" stroke-width="1" fill="none"></path></g><g transform="translate(949.7283465673057 253.19670598871517) rotate(0 5.5 11.499999999999993)"><text x="5.5" y="18" font-family="Helvetica, Segoe UI Emoji" font-size="20px" fill="#ffffff" text-anchor="middle" style="white-space: pre;" direction="ltr">6</text></g><g transform="translate(255.3206024169922 24.553347001240184) rotate(0 242.5 23)"><text x="485" y="18" font-family="Helvetica, Segoe UI Emoji" font-size="20px" fill="#087f5b" text-anchor="end" style="white-space: pre;" direction="ltr">Simple, human readable description of the data model,</text><text x="485" y="41" font-family="Helvetica, Segoe UI Emoji" font-size="20px" fill="#087f5b" text-anchor="end" style="white-space: pre;" direction="ltr">like prisma database.prisma</text></g><g transform="translate(89.01312255859375 508.8854850627636) rotate(0 316 23)"><text x="632" y="18" font-family="Helvetica, Segoe UI Emoji" font-size="20px" fill="#343a40" text-anchor="end" style="white-space: pre;" direction="ltr">Large JSON with all information necessary to resolve queries</text><text x="632" y="41" font-family="Helvetica, Segoe UI Emoji" font-size="20px" fill="#343a40" text-anchor="end" style="white-space: pre;" direction="ltr">Obtain after some potentially heavy computation and used as a "cache"</text></g><g transform="translate(10 995.9142173625683) rotate(0 270.5 23)"><text x="541" y="18" font-family="Helvetica, Segoe UI Emoji" font-size="20px" fill="#c92a2a" text-anchor="end" style="white-space: pre;" direction="ltr">SQL Schema file of the full database.</text><text x="541" y="41" font-family="Helvetica, Segoe UI Emoji" font-size="20px" fill="#c92a2a" text-anchor="end" style="white-space: pre;" direction="ltr">Can be applied with SQL migration tools like graphile migrate</text></g><g transform="translate(1814.8114929199219 26.506067643330027) rotate(0 303 23)"><text x="0" y="18" font-family="Helvetica, Segoe UI Emoji" font-size="20px" fill="#e67700" text-anchor="start" style="white-space: pre;" direction="ltr">GraphQL Schema object, can be exported as a file, introspected, etc</text><text x="0" y="41" font-family="Helvetica, Segoe UI Emoji" font-size="20px" fill="#e67700" text-anchor="start" style="white-space: pre;" direction="ltr">Used to  run the GraphQL server and define its API</text></g><g transform="translate(1820.8260498046875 534.1149619914745) rotate(0 164.5 11.5)"><text x="0" y="18" font-family="Helvetica, Segoe UI Emoji" font-size="20px" fill="#364fc7" text-anchor="start" style="white-space: pre;" direction="ltr">GraphQL query running in production</text></g><g transform="translate(1817.9300842285156 995.8046592570995) rotate(0 234 11.5)"><text x="0" y="18" font-family="Helvetica, Segoe UI Emoji" font-size="20px" fill="#364fc7" text-anchor="start" style="white-space: pre;" direction="ltr">Generated SQL query answering the GraphQL query</text></g><g transform="translate(1823.4517822265625 1471.4032615520214) rotate(0 157 11.5)"><text x="0" y="18" font-family="Helvetica, Segoe UI Emoji" font-size="20px" fill="#364fc7" text-anchor="start" style="white-space: pre;" direction="ltr">Result JSON of the GraphQL query</text></g><g stroke-linecap="round" transform="translate(1154.8205401060814 485.50090862455795) rotate(0 110.54311752738295 41.11050824159042)"><path d="M127.29 1.36 C141.93 1.62, 158.76 3.88, 171.68 6.91 C184.6 9.93, 196.72 14.55, 204.81 19.5 C212.9 24.46, 218.51 30.99, 220.23 36.64 C221.95 42.29, 219.72 48.14, 215.13 53.42 C210.55 58.69, 202.93 64.05, 192.72 68.29 C182.5 72.54, 168.29 76.66, 153.84 78.87 C139.4 81.08, 121.68 81.85, 106.05 81.57 C90.42 81.3, 73.73 79.76, 60.06 77.2 C46.39 74.64, 33.4 70.44, 24.03 66.19 C14.65 61.94, 7.56 57, 3.83 51.69 C0.09 46.39, -1.24 40.13, 1.63 34.35 C4.49 28.56, 11.82 21.84, 21 16.98 C30.17 12.12, 43.34 8.02, 56.69 5.17 C70.03 2.33, 87.31 0.53, 101.06 -0.08 C114.81 -0.7, 130.94 0.96, 139.18 1.48 C147.42 2, 151.01 2.31, 150.51 3.02 M160.31 4.1 C174.19 5.79, 189.11 10.06, 198.63 14.66 C208.14 19.26, 214.21 25.92, 217.4 31.71 C220.59 37.5, 220.7 43.73, 217.78 49.4 C214.86 55.06, 208.74 61.14, 199.86 65.68 C190.99 70.23, 177.75 73.81, 164.53 76.66 C151.31 79.51, 135.77 82.22, 120.57 82.78 C105.36 83.34, 87.75 81.86, 73.28 80.01 C58.81 78.16, 44.79 75.66, 33.75 71.68 C22.71 67.7, 12.4 61.73, 7.06 56.15 C1.72 50.58, 0.79 43.86, 1.71 38.22 C2.62 32.58, 5.11 27.24, 12.54 22.31 C19.98 17.38, 33.76 12.14, 46.32 8.65 C58.88 5.17, 72.94 2.52, 87.92 1.4 C102.9 0.28, 124.22 1.47, 136.19 1.93 C148.17 2.4, 155.87 3.84, 159.79 4.2 C163.71 4.57, 160.3 3.34, 159.7 4.13" stroke="#343a40" stroke-width="1" fill="none"></path></g><g transform="translate(1171.4702707926435 516.5415163534533) rotate(0 94 12)"><text x="94" y="19" font-family="Cascadia, Segoe UI Emoji" font-size="20px" fill="#343a40" text-anchor="middle" style="white-space: pre;" direction="ltr">model-cache.json</text></g><g stroke-linecap="round"><g transform="translate(1008.2435429145949 532.0260439413437) rotate(0 70.1709568742371 -1.173833124282936)"><path d="M1.07 0.17 C24.31 -0.12, 116.86 -2.22, 140.17 -2.52 M0.17 -0.79 C23.16 -0.83, 115.69 -0.66, 139.06 -1.13" stroke="#343a40" stroke-width="1" fill="none"></path></g><g transform="translate(1008.2435429145949 532.0260439413437) rotate(0 70.1709568742371 -1.173833124282936)"><path d="M111.23 8.82 C120.69 6.01, 132.37 0.47, 140.79 -0.05 M111.93 9.08 C116.45 8, 123.66 3.95, 138.24 -1.45" stroke="#343a40" stroke-width="1" fill="none"></path></g><g transform="translate(1008.2435429145949 532.0260439413437) rotate(0 70.1709568742371 -1.173833124282936)"><path d="M111.07 -11.71 C120.46 -7.1, 132.2 -5.23, 140.79 -0.05 M111.77 -11.44 C116.51 -8.07, 123.76 -7.68, 138.24 -1.45" stroke="#343a40" stroke-width="1" fill="none"></path></g></g></svg>